HIERARCHY
ROOT Hips
{
	OFFSET 0.000000 0.000000 0.000000
	CHANNELS 6 Xposition Yposition Zposition Zrotation Yrotation Xrotation 
	JOINT LeftUpLeg_virtual
	{
		OFFSET 0.000000 0.000000 0.000000
		CHANNELS 3 Zrotation Yrotation Xrotation
		JOINT LeftUpLeg
		{
			OFFSET 10.205400 -3.823500 0.155100
			CHANNELS 3 Zrotation Yrotation Xrotation
			JOINT LeftLeg
			{
				OFFSET 0.708757 -12.982077 0.567790
				CHANNELS 3 Zrotation Yrotation Xrotation
				JOINT LeftFoot
				{
					OFFSET -0.708756 -10.717838 -2.184338
					CHANNELS 3 Zrotation Yrotation Xrotation
					JOINT LeftToeBase
					{
						OFFSET 0.108149 -7.191104 7.560241
						CHANNELS 3 Zrotation Yrotation Xrotation
						End Site
						{
							OFFSET 0.000000 0.000000 0.000000
						}
					}
				}
			}
		}
	}
	JOINT RightUpLeg_virtual
	{
		OFFSET 0.000000 0.000000 0.000000
		CHANNELS 3 Zrotation Yrotation Xrotation
		JOINT RightUpLeg
		{
			OFFSET -10.205400 -3.823500 0.005500
			CHANNELS 3 Zrotation Yrotation Xrotation
			JOINT RightLeg
			{
				OFFSET -0.708756 -12.982134 0.610632
				CHANNELS 3 Zrotation Yrotation Xrotation
				JOINT RightFoot
				{
					OFFSET 0.708754 -10.717769 -1.945823
					CHANNELS 3 Zrotation Yrotation Xrotation
					JOINT RightToeBase
					{
						OFFSET -0.108140 -7.191069 7.372968
						CHANNELS 3 Zrotation Yrotation Xrotation
						End Site
						{
							OFFSET 0.000000 0.000000 0.000000
						}
					}
				}
			}
		}
	}
	JOINT Spine_virtual
	{
		OFFSET 0.000000 0.000000 0.000000
		CHANNELS 3 Zrotation Yrotation Xrotation
		JOINT Spine
		{
			OFFSET 0.000000 6.876099 0.125700
			CHANNELS 3 Zrotation Yrotation Xrotation
			JOINT Spine1
			{
				OFFSET 0.000000 8.022060 0.146608
				CHANNELS 3 Zrotation Yrotation Xrotation
				JOINT Spine2
				{
					OFFSET 0.000000 9.168068 0.167552
					CHANNELS 3 Zrotation Yrotation Xrotation
					JOINT Neck_virtual
					{
						OFFSET 0.000000 0.000000 0.000000
						CHANNELS 3 Zrotation Yrotation Xrotation
						JOINT Neck
						{
							OFFSET 0.000000 10.314075 0.188496
							CHANNELS 3 Zrotation Yrotation Xrotation
							JOINT Head
							{
								OFFSET 0.000000 7.643700 -2.377400
								CHANNELS 3 Zrotation Yrotation Xrotation
								End Site
								{
									OFFSET 0.000000 0.000000 0.000000
								}
							}
						}
					}
					JOINT LeftShoulder_virtual
					{
						OFFSET 0.000000 0.000000 0.000000
						CHANNELS 3 Zrotation Yrotation Xrotation
						JOINT LeftShoulder
						{
							OFFSET 4.392200 8.824978 0.174984
							CHANNELS 3 Zrotation Yrotation Xrotation
							JOINT LeftArm
							{
								OFFSET 8.771219 -2.981674 -0.026999
								CHANNELS 3 Zrotation Yrotation Xrotation
								JOINT LeftForeArm
								{
									OFFSET 8.512804 0.000000 -0.000000
									CHANNELS 3 Zrotation Yrotation Xrotation
									JOINT LeftHand
									{
										OFFSET 18.484802 0.000000 -0.000000
										CHANNELS 3 Zrotation Yrotation Xrotation
										End Site
										{
											OFFSET 0.000000 0.000000 0.000000
										}
									}
								}
							}
						}
					}
					JOINT RightShoulder_virtual
					{
						OFFSET 0.000000 0.000000 0.000000
						CHANNELS 3 Zrotation Yrotation Xrotation
						JOINT RightShoulder
						{
							OFFSET -4.392200 8.824993 0.141379
							CHANNELS 3 Zrotation Yrotation Xrotation
							JOINT RightArm
							{
								OFFSET -8.771282 -2.981682 -0.094208
								CHANNELS 3 Zrotation Yrotation Xrotation
								JOINT RightForeArm
								{
									OFFSET -8.494598 0.000000 0.000000
									CHANNELS 3 Zrotation Yrotation Xrotation
									JOINT RightHand
									{
										OFFSET -18.483803 0.000000 0.000001
										CHANNELS 3 Zrotation Yrotation Xrotation
										End Site
										{
											OFFSET 0.000000 0.000000 0.000000
										}
									}
								}
							}
						}
					}
				}
			}
		}
	}
}
MOTION
Frames: 8
Frame Time: 0.033333
11.328992 20.604843 -20.105719 179.893085 5.429408 179.845629 6.080042 -0.952942 5.363415 -2.187104 4.300713 -72.740975 17.124609 -0.378259 109.327525 -9.961981 -7.240216 1.643317 0.000000 0.000000 0.000000 9.751637 0.879400 4.934213 -7.508833 -22.211584 -36.735315 -4.735736 -2.809310 110.570394 -5.558776 25.581447 -14.809872 0.000000 0.000000 0.000000 6.302395 1.482330 3.538416 1.340598 -0.073008 0.519645 -1.923384 -2.949901 4.257923 0.040021 0.005408 -0.018172 -1.952620 -1.676572 5.965645 -2.645328 1.221383 8.725389 0.000000 0.000000 0.000000 -0.009972 -1.199386 2.934216 -5.934129 -3.617605 -2.113258 -53.781948 2.235785 16.449240 165.845859 -84.820588 -147.852381 0.000000 0.000000 0.000000 -4.529323 -0.018009 1.602128 18.073925 10.021385 -2.754198 43.787865 9.580958 -15.135487 -170.608044 71.691428 -179.645668 0.000000 0.000000 0.000000 
11.408442 20.640190 -20.281382 179.890135 5.843775 -179.904396 6.152514 -0.715714 5.278857 -1.917799 4.332069 -72.368880 16.820282 -0.455994 109.500602 -10.297505 -7.395338 1.572613 0.000000 0.000000 0.000000 9.728436 1.167845 4.771049 -7.397432 -22.045533 -36.253032 -4.644959 -2.740838 110.098326 -5.295242 25.380288 -14.464678 0.000000 0.000000 0.000000 6.404899 1.660220 2.969876 1.190943 -0.165529 -0.089903 -2.120842 -2.998570 4.276973 0.020600 -0.025349 0.013799 -2.135362 -1.763371 6.060494 -2.757331 1.395754 9.428698 0.000000 0.000000 0.000000 -0.186136 -1.228317 2.941602 -5.833788 -3.644125 -2.078283 -53.468264 1.588662 16.848876 165.852921 -84.655735 -147.983739 0.000000 0.000000 0.000000 -4.684410 -0.025207 1.599321 17.736867 9.964419 -3.411601 41.543195 12.523479 -15.659829 -172.660871 69.648081 177.698887 0.000000 0.000000 0.000000 
11.517075 20.675112 -20.437847 179.965062 6.100787 -179.813718 6.231532 -0.530330 5.164288 -1.535561 4.283353 -71.850366 16.464646 -0.618970 109.523552 -10.707308 -7.587853 1.460339 0.000000 0.000000 0.000000 9.786916 1.287942 4.563243 -7.230087 -21.815122 -35.703936 -4.755109 -2.624203 109.586239 -5.136303 25.617794 -13.922140 0.000000 0.000000 0.000000 6.476742 1.826426 2.439231 1.052468 -0.184278 -0.597146 -2.246049 -2.976135 4.335553 0.026094 0.016871 0.013953 -2.267177 -1.733207 6.140655 -2.822812 1.483767 10.330531 0.000000 0.000000 0.000000 -0.351794 -1.316727 2.986345 -5.804644 -3.820332 -2.224439 -53.088892 1.053959 17.451915 166.025861 -84.501386 -148.255772 0.000000 0.000000 0.000000 -4.844933 -0.129612 1.470658 17.322085 9.786545 -3.904525 39.625240 15.484193 -16.258231 -173.976106 68.011165 175.859094 0.000000 0.000000 0.000000 
11.643515 20.702106 -20.590528 179.886187 6.224362 -179.728286 6.090866 -0.391003 5.047355 -1.088187 4.154816 -71.352131 16.006716 -0.842867 109.537943 -11.093757 -7.751892 1.365862 0.000000 0.000000 0.000000 9.660215 1.368704 4.170892 -7.118307 -21.674215 -34.691641 -4.778651 -2.848743 109.088400 -4.491001 24.900522 -13.391347 0.000000 0.000000 0.000000 6.400709 1.889719 1.936229 0.796404 -0.247152 -1.083518 -2.385823 -2.992280 4.338092 0.005609 -0.005932 0.004100 -2.360555 -1.688233 6.194030 -2.744003 1.601971 11.295567 0.000000 0.000000 0.000000 -0.453777 -1.310067 2.928691 -5.813032 -3.759836 -2.224968 -52.716056 0.537243 17.983074 166.848735 -84.283373 -149.167507 0.000000 0.000000 0.000000 -4.957242 -0.079997 1.452105 16.907199 9.689779 -4.404313 38.453384 17.981120 -16.664750 -174.628225 66.839507 174.762520 0.000000 0.000000 0.000000 
11.783383 20.728180 -20.721140 179.894438 6.130391 -179.725773 6.045694 -0.416000 4.922538 -0.647369 4.081244 -70.910136 15.540726 -1.032193 109.528114 -11.489905 -7.978269 1.254733 0.000000 0.000000 0.000000 9.505941 1.364041 4.142102 -6.483062 -21.825866 -34.073369 -5.105197 -2.858703 107.973249 -5.074446 22.847860 -17.079822 0.000000 0.000000 0.000000 6.375184 1.902137 1.513954 0.551401 -0.270372 -1.501577 -2.480401 -2.978793 4.362225 0.008344 -0.015703 0.033658 -2.445997 -1.648432 6.168288 -2.598272 1.664812 12.303868 0.000000 0.000000 0.000000 -0.565438 -1.314305 2.821122 -5.907500 -3.757446 -2.261366 -52.193731 0.266164 18.809713 166.838463 -84.014598 -149.165594 0.000000 0.000000 0.000000 -5.087690 -0.066269 1.293274 16.520689 9.479329 -4.820934 38.127704 19.725953 -16.908217 -174.854714 66.196882 174.194918 0.000000 0.000000 0.000000 
11.932743 20.749203 -20.849983 179.915420 5.930201 -179.842050 6.027409 -0.464459 4.897350 -0.268368 4.037669 -70.462943 15.111365 -1.176609 109.529323 -11.881927 -8.211789 1.183638 0.000000 0.000000 0.000000 9.405711 1.139908 4.066040 -5.961783 -21.820728 -33.368869 -5.509423 -2.771789 107.217864 -5.784682 22.201544 -19.148237 0.000000 0.000000 0.000000 6.326102 1.857494 1.248146 0.266241 -0.256906 -1.844674 -2.560173 -2.936012 4.354947 0.023234 -0.018559 0.030383 -2.546792 -1.492585 6.093865 -2.413319 1.697559 13.287381 0.000000 0.000000 0.000000 -0.704175 -1.238817 2.696003 -6.087668 -3.702520 -2.272788 -51.705843 0.232540 19.682008 167.174535 -83.823941 -149.478540 0.000000 0.000000 0.000000 -5.244469 -0.048172 1.204697 16.229308 9.275267 -5.263265 38.725537 20.644826 -16.661780 -174.962440 66.254153 173.870101 0.000000 0.000000 0.000000 
12.078137 20.764898 -20.979162 179.911445 5.605321 -179.817557 6.068740 -0.608246 4.840678 0.092869 4.074062 -70.117219 14.772077 -1.290946 109.565967 -12.209021 -8.399259 1.179301 0.000000 0.000000 0.000000 9.403086 0.992633 3.957427 -5.512604 -21.674330 -32.778580 -5.601312 -2.647793 106.846056 -6.000219 22.139816 -19.266692 0.000000 0.000000 0.000000 6.287716 1.716053 0.932817 -0.043330 -0.223556 -2.203624 -2.630796 -2.909010 4.317595 0.039812 -0.059012 0.044421 -2.630518 -1.379865 6.055711 -2.200128 1.733439 14.180010 0.000000 0.000000 0.000000 -0.824584 -1.074625 2.640092 -6.321653 -3.526931 -2.376745 -51.242275 0.450845 20.613098 167.432471 -83.787823 -149.644664 0.000000 0.000000 0.000000 -5.380289 0.096598 1.155492 16.075731 9.134057 -5.500503 40.030045 20.702925 -16.288367 -174.673974 66.867907 174.101822 0.000000 0.000000 0.000000 
12.208843 20.779341 -21.093740 179.928274 5.170250 -179.702782 6.159299 -0.905772 4.714402 0.392836 4.185346 -69.857139 14.518609 -1.346520 109.570175 -12.444236 -8.541698 1.232523 0.000000 0.000000 0.000000 9.340661 0.754844 3.746438 -5.133962 -21.536466 -32.268266 -5.734804 -2.650863 106.392067 -6.012739 22.121279 -19.170522 0.000000 0.000000 0.000000 6.271375 1.460725 0.513799 -0.361616 -0.021036 -2.543367 -2.689231 -2.754442 4.261825 0.007843 -0.124968 0.049256 -2.633027 -1.505536 6.084972 -1.981596 1.781609 14.942591 0.000000 0.000000 0.000000 -0.886436 -1.128165 2.571763 -6.616004 -3.510782 -2.241852 -50.876238 0.795809 21.423875 166.397123 -83.710785 -148.458396 0.000000 0.000000 0.000000 -5.449346 0.113612 1.155031 16.140943 8.919168 -5.606814 41.727077 20.036717 -15.812074 -174.220449 68.173334 174.674124 0.000000 0.000000 0.000000 
